<svg width="28" height="24" viewBox="0 0 28 24" fill="none" xmlns="http://www.w3.org/2000/svg">
<rect x="0.5" y="0.5" width="27" height="23" rx="3.5" fill="white"/>
<g clip-path="url(#clip0)">
<path d="M7.8596 18.9432V17.9621C7.8596 17.5847 7.63319 17.3206 7.25583 17.3206C7.02941 17.3206 6.84073 17.396 6.68979 17.5847C6.57658 17.4338 6.3879 17.3206 6.16149 17.3206C5.97281 17.3206 5.82186 17.3583 5.70866 17.547V17.3583H5.3313V18.9432H5.70866V18.0753C5.70866 17.7734 5.8596 17.6602 6.08602 17.6602C6.31243 17.6602 6.46337 17.8111 6.46337 18.0376V18.9432H6.76526V18.0753C6.76526 17.7734 6.95394 17.6602 7.14262 17.6602C7.40677 17.6602 7.51998 17.8111 7.51998 18.0376V18.9432H7.89734H7.8596ZM13.0294 17.3583H12.4634V16.8677H12.086V17.3583H11.7841V17.6602H12.1238V18.4149C12.1238 18.7923 12.237 18.9809 12.6521 18.9809C12.803 18.9809 12.9917 18.9432 13.1049 18.8677L12.9917 18.5659C12.8785 18.6413 12.7653 18.6413 12.6898 18.6413C12.5011 18.6413 12.4634 18.5659 12.4634 18.3772V17.6602H13.0294V17.3583V17.3583ZM15.5577 17.547V17.3583H15.1804V18.9432H15.5577V18.0376C15.5577 17.8111 15.6709 17.6602 15.8973 17.6602H16.086L16.1992 17.3583C16.1261 17.3343 16.0498 17.3215 15.9728 17.3206C15.7464 17.3206 15.6332 17.396 15.5577 17.547V17.547ZM11.52 17.4715C11.3313 17.3583 11.1426 17.3206 10.8785 17.3206C10.4634 17.3206 10.1992 17.5092 10.1992 17.8111C10.1992 18.0753 10.3879 18.264 10.7653 18.3017H10.9162C11.1049 18.3394 11.1804 18.3772 11.1804 18.4904C11.1804 18.6036 11.0671 18.6791 10.803 18.6791C10.5766 18.6791 10.4256 18.6036 10.3124 18.5281L10.1615 18.7923C10.362 18.9259 10.6 18.992 10.8407 18.9809C11.2936 18.9809 11.5577 18.7545 11.5577 18.4526C11.5577 18.1885 11.3313 18.0753 10.9917 17.9998H10.8407C10.6898 17.9621 10.5766 17.9243 10.5766 17.8111C10.5766 17.6979 10.6898 17.6225 10.8785 17.6225C11.0671 17.6225 11.2558 17.6979 11.369 17.7734L11.52 17.4715ZM20.7653 17.3206C20.5388 17.3206 20.4256 17.396 20.3502 17.547V17.3583H19.9728V18.9432H20.3502V18.0376C20.3502 17.8111 20.4634 17.6602 20.6898 17.6602H20.8785L20.9917 17.3583C20.9186 17.3343 20.8422 17.3215 20.7653 17.3206V17.3206ZM16.3124 18.1508C16.3124 18.6413 16.6521 18.9809 17.1426 18.9809C17.4068 18.9809 17.52 18.9432 17.7087 18.7923L17.5577 18.5281C17.4445 18.6036 17.2936 18.6791 17.1804 18.6791C16.8785 18.6791 16.6521 18.4526 16.6521 18.1508C16.6521 17.8489 16.8785 17.6602 17.1426 17.6602C17.2936 17.6602 17.4445 17.6602 17.5577 17.7734L17.7087 17.5092C17.5577 17.3583 17.4068 17.3206 17.1426 17.3206C16.6521 17.3206 16.3124 17.6979 16.3124 18.1508ZM19.5577 18.1508V17.3583H19.1804V17.547C19.1049 17.396 18.9162 17.3206 18.6898 17.3206C18.237 17.3206 17.9351 17.6979 17.9351 18.1508C17.9351 18.6413 18.237 18.9809 18.6898 18.9809C18.9162 18.9809 19.0671 18.9055 19.1804 18.7545V18.9432H19.5577V18.1508ZM18.2747 18.1508C18.2747 17.8866 18.4256 17.6602 18.7275 17.6602C19.0294 17.6602 19.2181 17.8489 19.2181 18.1508C19.2181 18.4526 19.0294 18.7168 18.6898 18.7168C18.3502 18.7168 18.237 18.4526 18.237 18.1885L18.2747 18.1508ZM14.1238 17.3206C13.6332 17.3206 13.2936 17.6602 13.2936 18.1508C13.2936 18.6413 13.6709 18.9809 14.1238 18.9809C14.3502 18.9809 14.5766 18.9432 14.7653 18.7545L14.6143 18.4904C14.4787 18.61 14.3046 18.677 14.1238 18.6791C13.8973 18.6791 13.7464 18.5659 13.6709 18.3017H14.8407V18.1508C14.8407 17.6602 14.5388 17.3206 14.086 17.3206H14.1238V17.3206ZM14.086 17.6225C14.3124 17.6225 14.4634 17.7734 14.4634 17.9998H13.6709C13.6709 17.7734 13.8596 17.6225 14.086 17.6225ZM22.7653 18.1508V16.7168H22.3879V17.5847C22.2747 17.4338 22.1238 17.3583 21.8973 17.3583C21.4445 17.3583 21.1049 17.7357 21.1049 18.1885C21.1049 18.6791 21.4822 19.0187 21.8596 19.0187C22.1238 19.0187 22.2747 18.9432 22.3879 18.7923V18.9809H22.7653V18.1508V18.1508ZM21.4445 18.1508C21.4445 17.8866 21.6332 17.6602 21.9351 17.6602C22.237 17.6602 22.4256 17.8489 22.4256 18.1508C22.4256 18.4526 22.237 18.6791 21.9351 18.6791C21.6332 18.6791 21.4445 18.4149 21.4445 18.1508ZM9.82186 18.1508V17.3583H9.44451V17.547C9.36903 17.396 9.18036 17.3206 8.95394 17.3206C8.50111 17.3206 8.19922 17.6979 8.19922 18.1508C8.19922 18.6413 8.50111 18.9809 8.95394 18.9809C9.18036 18.9809 9.3313 18.9055 9.44451 18.7545V18.9432H9.82186V18.1508ZM19.5577 18.1508V17.3583H19.1804V17.547C19.1049 17.396 18.9162 17.3206 18.6898 17.3206C18.237 17.3206 17.9351 17.6979 17.9351 18.1508C17.9351 18.6413 18.237 18.9809 18.6898 18.9809C18.9162 18.9809 19.0671 18.9055 19.1804 18.7545V18.9432H19.5577V18.1508ZM8.53885 18.1508C8.53885 17.8866 8.68979 17.6602 8.99168 17.6602C9.29356 17.6602 9.48224 17.8489 9.48224 18.1508C9.48224 18.4526 9.29356 18.6791 8.99168 18.6791C8.68979 18.6791 8.53885 18.4149 8.53885 18.1508ZM18.2747 18.1508C18.2747 17.8866 18.4256 17.6602 18.7275 17.6602C19.0294 17.6602 19.2181 17.8489 19.2181 18.1508C19.2181 18.4526 19.0294 18.6791 18.7275 18.6791C18.4256 18.6791 18.2747 18.4149 18.2747 18.1508Z" fill="black"/>
<path d="M11.369 5.28027H16.5766V14.8025H11.369V5.28027Z" fill="#FF5F00"/>
<path d="M14.0105 5.28027C11.5188 3.34442 7.95015 3.63386 5.80675 5.94555C4.7735 7.05771 4.19922 8.51957 4.19922 10.0376C4.19922 11.5557 4.7735 13.0175 5.80675 14.1297C7.95015 16.4414 11.5188 16.7308 14.0105 14.795C12.5886 13.6486 11.5234 11.9674 11.5234 10.0184C11.5234 8.10782 12.5886 6.38819 14.0105 5.28027V5.28027Z" fill="#EB001B"/>
<path d="M23.8218 10.0377C23.8377 12.3422 22.5162 14.4517 20.4233 15.463C18.3305 16.4743 15.8373 16.2215 14.0105 14.7913C14.7408 14.2324 15.3328 13.513 15.7405 12.6887C16.1483 11.8644 16.361 10.9573 16.3622 10.0377C16.3622 8.18224 15.4939 6.41884 14.0105 5.28375C15.832 3.85847 18.3162 3.60224 20.406 4.60413C22.4958 5.60564 23.8226 7.70186 23.8218 9.9996V10.0373V10.0377Z" fill="#F79E1B"/>
</g>
<rect x="0.5" y="0.5" width="27" height="23" rx="3.5" stroke="#DDDDDD"/>
<defs>
<clipPath id="clip0">
<rect width="20" height="15.0943" fill="white" transform="translate(4 4)"/>
</clipPath>
</defs>
</svg>
